<?xml version="1.0" encoding="UTF-8"?>
<svg version="1.1" viewBox="0 0 1020 1024" width="255" height="256" xmlns="http://www.w3.org/2000/svg">
<path transform="translate(487)" d="m0 0h45l33 3 40 6 28 6 29 8 35 12 30 13 30 15 22 13 27 18 19 14 13 11 11 9 16 15 22 22 7 8 13 15 10 13 14 19 13 20 9 15 10 18 8 15 12 27 11 29 8 25 6 23 11 49 1 4v136l-8 32-8 34-11 35-11 28-11 24-8 16-12 22-14 22-14 20-14 18-12 14-9 10-7 8-23 23-8 7-13 11-11 9-19 14-24 16-22 13-23 12-25 12-31 12-25 8-21 6-28 6-30 5-39 4h-54l-41-4-36-6-30-7-36-11-26-10-29-13-25-13-25-15-22-15-12-9-13-10-14-12-10-9-12-11-15-15-7-8-10-11-9-11-14-18-14-20-12-19-12-21-12-23-11-25-9-24-9-27-8-32-5-26-7-45v-81l4-26 6-36 7-30 9-30 10-27 11-25 9-19 12-22 12-19 14-21 12-16 11-14 13-15 14-15 22-22 8-7 14-12 16-12 19-14 17-11 15-9 18-10 16-8 19-9 33-13 28-9 32-8 33-6 42-5zm30 101-3 1-2 16v5l1 1 53 6 29 5 30 8 26 9 31 13 6 1 2-12 1-9-1-3-16-8-27-11-26-8-25-6-36-6-21-2zm-80 6-26 5-25 7-26 9-25 11-20 10-27 16-17 12-16 12-13 11-10 9-12 11-9 9-7 8-9 10-13 17-11 15-11 17-12 21-13 26-13 33-9 30-7 32-4 28-2 27v38l3 33 5 29 5 19 1 2 4-2 1-4h2l1-3 2-1 3-8 5-3-2-18-3-25-1-15v-48l4-37 6-30 7-25 8-23 10-24 10-19 10-18 14-21 14-19 13-15 11-12 20-20 11-9 16-13 20-14 15-9 18-10 25-12 26-10 26-8 39-10-3-22z" fill="#023426"/>
<path transform="translate(487)" d="m0 0h45l33 3 40 6 28 6 29 8 35 12 30 13 30 15 22 13 27 18 19 14 13 11 11 9 16 15 22 22 7 8 13 15 10 13 14 19 13 20 9 15 10 18 8 15 12 27 11 29 8 25 6 23 11 49 1 4v136l-8 32-8 34-11 35-11 28-11 24-8 16-12 22-14 22-14 20-14 18-12 14-9 10-7 8-23 23-8 7-13 11-11 9-19 14-24 16-22 13-23 12-25 12-31 12-25 8-21 6-28 6-30 5-39 4h-54l-41-4-36-6-30-7-36-11-26-10-29-13-25-13-25-15-22-15-12-9-13-10-14-12-10-9-12-11-15-15-7-8-10-11-9-11-14-18-14-20-12-19-12-21-12-23-11-25-9-24-9-27-8-32-5-26-7-45v-81l4-26 6-36 7-30 9-30 10-27 11-25 9-19 12-22 12-19 14-21 12-16 11-14 13-15 14-15 22-22 8-7 14-12 16-12 19-14 17-11 15-9 18-10 16-8 19-9 33-13 28-9 32-8 33-6 42-5zm30 101-3 1-2 16v5l1 1 8 1-44 2-31 3 3-1-3-22h-9l-26 5-25 7-26 9-25 11-20 10-27 16-17 12-16 12-13 11-10 9-12 11-9 9-7 8-9 10-13 17-11 15-11 17-12 21-13 26-13 33-9 30-7 32-4 28-2 27v38l3 33 5 29 5 19 1 2 4-2 1-4h2l1-3 2-1 3-8 5-3v-7l5 22 8 26 8 22 9 20 10 20 12 20 8 12 14 19 9 11 9 10 7 8 19 19 8 7 17 14 15 11 20 13 23 13 25 12 23 9 22 7 19 5 31 6 43 4h29l41-4 31-6 27-7 29-10 27-12 21-11 18-11 16-11 17-13 10-9 8-7 10-9 13-13 7-8 12-14 15-20 14-22 11-19 13-28 8-20 7-21 8-32 5-31 3-35v-24l-3-36-5-31-8-32-10-29-10-23-8-16-8-15-10-16-11-16-10-13-9-11-12-13-5-6h-2l-2-4h-2l-1-3-8-7-8-8-10-8-18-14-12-8-19-12-21-12 4-1 3-17-1-6-16-8-27-11-26-8-25-6-36-6-21-2z" fill="#023426"/>
<path transform="translate(690,142)" d="m0 0 6 2 23 12 20 13 17 12 14 11 14 12 15 14 11 11 7 8 9 10 11 14 13 18 14 22 10 18 8 16 9 20 11 30 8 29 5 23 4 29 2 32v26l-2 33-5 32-7 30-9 29-11 28-11 23-13 23-12 19-14 19-8 10-12 14-7 8-22 22-8 7-12 10-17 13-24 16-15 9-27 14-23 10-28 10-34 9-28 5-26 3-25 1h-23l-32-2-17-2-27-5-25-6-36-12-25-11-16-8-17-9-22-14-18-13-22-18-12-11-24-24-9-11-11-13-13-18-10-15-14-24-12-24-8-19-9-25-6-21 1-4v2l4-3 1-3h2l1-4h2l1-5 2-4 4-2v-11l2 4 5 22 8 26 8 22 9 20 10 20 12 20 8 12 14 19 9 11 9 10 7 8 18 18 8 7 17 14 15 11 20 13 23 13 25 12 23 9 22 7 19 5 31 6 43 4h29l41-4 31-6 27-7 29-10 27-12 21-11 18-11 16-11 17-13 10-9 8-7 10-9 12-12 7-8 12-14 15-20 14-22 11-19 13-28 8-20 7-21 8-32 5-31 3-35v-24l-3-36-5-31-8-32-10-29-10-23-8-16-8-15-10-16-11-16-10-13-9-11-12-13-4-5-6-5-17-17-10-8-18-14-12-8-19-12-21-12-2-2h5l3-17z" fill="#F9F8F8"/>
<path transform="translate(627,496)" d="m0 0h20l20 2 25 5 12 3 11 4 1 1 2 28v29l-5-1-6-9-7-11-9-11-10-10-15-10-14-6-10-3-16-2-18 1-16 4-11 6-5 5-6 7-5 13v16l5 13 6 7v2l4 2 11 8 21 10 21 8 36 12 15 6 15 8 12 9 9 10 7 14 3 13v21l-4 17-8 17-8 10-7 7-15 10-14 6-14 4-14 2h-32l-24-3-20-5-18-6-17-9-2-3-3-43-1-20 1-2 5 1 13 23 10 14 11 12 10 9 18 11 12 5 15 4 11 2h17l16-4 15-8 8-8 6-12 2-5 1-7v-9l-2-10-6-12-7-8-15-10-15-7-20-7-36-12-24-10-13-8-11-9-7-9-6-12-3-16v-16l3-15 8-16 11-12 9-8 19-9 13-4 15-3z" fill="#F9F8F8"/>
<path transform="translate(488,100)" d="m0 0h33l-4 2h-3v9l-1 12 10 2v1l-46 2-21 2-14 1 4-2h3l-3-12v-10h-7v-1l26-4z" fill="#F9F8F8"/>
<path transform="translate(249,398)" d="m0 0h7l6 3 5 5 3 6-1 10-6 8-4 3-9 1-8-4-5-6-1-2v-12l4-7 4-3z" fill="#F9F8F8"/>
<path transform="translate(273,345)" d="m0 0h13l5 3 4 6 1 6-2 11-4 5-5 3-10 1-9-6-5-9 1-8 3-6 6-5z" fill="#F9F8F8"/>
<path transform="translate(309,301)" d="m0 0 4 2 6 8 5 6v2l5 2 2 2v4l-5 2 2 5 1 11-2 8-6 9-4 2-7-1-4-6-1-5-5-2-1-5 10-6 8-8 5-3-11-14-7-6 1-4z" fill="#F9F8F8"/>
<path transform="translate(295,305)" d="m0 0h4v6l-3 4 7 2 5 6 1 7-4 9-8 6-9-4-4-7 2-10 3-5h2l-1-5z" fill="#F7F7F7"/>
<path transform="translate(220,427)" d="m0 0 3 2-2 4-4 7-1 10 8 2 9 1-1-16h8v3l-3 3h-2l1 11 10 2 12 1-1 6-2 5-4-1-9-3-23-4-9-1 4-20 4-11z" fill="#F9F8F8"/>
<path transform="translate(406,242)" d="m0 0 6 1 5 5 8 20v4h-7l-3-2-3 5-9 5-5-2-3-4-1-6 3-6 9-7h2l-2 4-5 5v5l1 3 5-1 5-3h3l-2-5-2-8-3-6-1-1h-6l-5 4-2 3h-2l1-4 5-6z" fill="#F9F8F8"/>
<path transform="translate(342,274)" d="m0 0h6l8 7 12 16-3 3-5-1-4-4v9l-7 7h-6l-5-4-1-2 1-9 7-11h3l-2 4-2 3-1 9 1 2h6l3-9-1-5-6-8-6-1-5 5-3 4-2-1 4-8 6-5z" fill="#F9F8F8"/>
<path transform="translate(271,351)" d="m0 0 11 1 9 5 2 4-1 7-4 4h-10l-10-5-5-6 2-6z" fill="#023426"/>
<path transform="translate(243,407)" d="m0 0h16l6 3 3 3-1 6-5 5-2 1h-13l-7-3-3-7 4-7z" fill="#023426"/>
<path transform="translate(367,238)" d="m0 0h4l1 6h-2v2l-10 2v9l1 4 9-1v2l-6 2 11 20 4 5-1 3-6 3h-3l-2-9-11-19-2-10 4-12z" fill="#F9F8F8"/>
<path transform="translate(510,32)" d="m0 0h7l3 2v22l-1 15h-9l-1-1v-37z" fill="#F9F8F8"/>
<path transform="translate(33,492)" d="m0 0h31l7 1v9l-1 1h-24l-14-1v-9z" fill="#F9F8F8"/>
<path transform="translate(938,617)" d="m0 0 36 8 1 1v7l-1 3-9-1-26-7-3-2 1-8z" fill="#F9F8F8"/>
<path transform="translate(63,340)" d="m0 0 9 3 26 10 1 4-2 5-3 1-33-12-1-3 2-7z" fill="#F9F8F8"/>
<path transform="translate(895,724)" d="m0 0 6 1 26 14 3 3-2 6-3 3-27-15-6-5 2-5z" fill="#F9F8F8"/>
<path transform="translate(948,561)" d="m0 0h9l30 4-1 10h-10l-28-4-1-1z" fill="#F9F8F8"/>
<path transform="translate(806,836)" d="m0 0 5 1 15 16 8 8 1 3-7 6-4-2-11-13-10-11-1-4z" fill="#F9F8F8"/>
<path transform="translate(881,748)" d="m0 0 5 2 20 13 8 6-2 5-2 3-6-2-27-18 1-5z" fill="#F9F8F8"/>
<path transform="translate(909,698)" d="m0 0 6 2 28 13 1 3-3 7-5-1-27-13-4-2 2-6z" fill="#F9F8F8"/>
<path transform="translate(920,672)" d="m0 0 6 1 28 11 2 2-1 8-3 1-21-8-12-5-2-2 1-5z" fill="#F9F8F8"/>
<path transform="translate(953,532)" d="m0 0 26 1 9 1 1 1v8l-1 1h-14l-20-1-4-1-1-7 1-2z" fill="#F9F8F8"/>
<path transform="translate(864,772)" d="m0 0 5 1 13 10 13 9 1 5-5 5-4-2-16-12-10-8v-4z" fill="#F9F8F8"/>
<path transform="translate(944,589)" d="m0 0 7 1 27 5 4 2-1 8-5 1-34-7 1-8z" fill="#F9F8F8"/>
<path transform="translate(981,441)" d="m0 0 4 1 1 9-13 3-19 2h-6l-2-2v-6l9-3 22-3z" fill="#F9F8F8"/>
<path transform="translate(488,950)" d="m0 0h6l2 3-1 35-2 2h-7l-2-2 1-30 1-7z" fill="#F9F8F8"/>
<path transform="translate(929,645)" d="m0 0 7 1 26 8 5 3-1 6-3 3-25-8-9-3-1-1z" fill="#F9F8F8"/>
<path transform="translate(120,232)" d="m0 0 6 1 13 10 13 9 1 4-4 5-6-2-11-8-16-11 2-4z" fill="#F9F8F8"/>
<path transform="translate(576,945)" d="m0 0 5 1 2 6 3 21 1 10-4 2h-6l-4-23-1-15z" fill="#F9F8F8"/>
<path transform="translate(248,864)" d="m0 0 5 3 2 4-21 30-5-1-4-4 2-4 10-14 10-13z" fill="#F9F8F8"/>
<path transform="translate(34,461)" d="m0 0h11l25 3 3 1-1 9-2 1-36-4-1-1v-7z" fill="#F9F8F8"/>
<path transform="translate(603,41)" d="m0 0 8 1 1 1-1 11-5 24-2 3-7-1-1-1 1-11 4-24z" fill="#F9F8F8"/>
<path transform="translate(967,381)" d="m0 0h5l2 4v6l-33 9-4-1-2-3v-5l15-5z" fill="#F9F8F8"/>
<path transform="translate(604,940)" d="m0 0 5 1 2 4 6 29-1 5-8 1-3-10-5-23 1-6z" fill="#F9F8F8"/>
<path transform="translate(321,909)" d="m0 0 6 1 2 2-1 5-9 20-5 11-6-2-3-2 1-5 14-29z" fill="#F9F8F8"/>
<path transform="translate(271,881)" d="m0 0 5 1 3 3-2 5-14 23-4 6-4-2-4-3 2-6 13-20z" fill="#F9F8F8"/>
<path transform="translate(972,412)" d="m0 0h7l2 4v5l-13 3-21 4-5-1-1-2v-6l11-3z" fill="#F9F8F8"/>
<path transform="translate(88,284)" d="m0 0 5 1 22 12 8 5-2 6-4 2-16-8-15-8-2-3z" fill="#F9F8F8"/>
<path transform="translate(140,207)" d="m0 0 4 1 10 9 14 11 3 4-4 6-4-1-12-9-16-13 2-5z" fill="#F9F8F8"/>
<path transform="translate(160,184)" d="m0 0 4 1 4 3v2l4 2 8 8 8 7 2 3-5 6-4-1-8-8-11-9-7-7 2-4z" fill="#F9F8F8"/>
<path transform="translate(347,920)" d="m0 0 6 1 2 1-1 7-9 25-3 6-6-2-3-3 9-24 4-10z" fill="#F9F8F8"/>
<path transform="translate(687,913)" d="m0 0 4 1 5 11 9 20-1 5-4 2-4-1-5-10-9-22v-3z" fill="#F9F8F8"/>
<path transform="translate(58,521)" d="m0 0h12l1 1v9l-10 1h-29v-9l2-1z" fill="#F9F8F8"/>
<path transform="translate(74,312)" d="m0 0 6 1 21 10 8 4 1 4-3 5-9-3-24-10-2-2 1-7z" fill="#F9F8F8"/>
<path transform="translate(773,112)" d="m0 0 5 1 5 5-7 9-14 21h-5l-3-3 1-5 10-16z" fill="#F9F8F8"/>
<path transform="translate(181,162)" d="m0 0 5 1 11 12 13 14-2 4-4 3-4-2-7-8-17-17z" fill="#F9F8F8"/>
<path transform="translate(692,68)" d="m0 0 5 1 3 2-1 7-12 28-5 1-4-3 1-6 11-27z" fill="#F9F8F8"/>
<path transform="translate(403,937)" d="m0 0 7 2 1 4-4 16-4 17-3 2-7-3 1-9 7-28z" fill="#F9F8F8"/>
<path transform="translate(846,795)" d="m0 0 5 1 14 12 11 9 1 4-5 5-4-1-14-13-11-9-1-2z" fill="#F9F8F8"/>
<path transform="translate(953,504)" d="m0 0h36l1 1v8l-3 1h-35l-2-3v-5z" fill="#F9F8F8"/>
<path transform="translate(983,472)" d="m0 0 5 1 1 9-1 1-14 1h-24l-1-1v-6l4-2 16-2z" fill="#F9F8F8"/>
<path transform="translate(747,96)" d="m0 0h5l4 3-2 6-14 24-3 4-6-2-2-4 11-20z" fill="#F9F8F8"/>
<path transform="translate(295,896)" d="m0 0 6 1 2 1v5l-12 22-4 9-5-1-4-2 1-7 13-23z" fill="#F9F8F8"/>
<path transform="translate(785,854)" d="m0 0 4 2 10 12 12 15-2 4-4 3-4-2-12-15-9-12 2-5z" fill="#F9F8F8"/>
<path transform="translate(68,550)" d="m0 0 4 1 1 2v6l-9 2-15 2h-15l-1-8 1-2z" fill="#F9F8F8"/>
<path transform="translate(104,257)" d="m0 0 4 1 28 18 1 3-2 5-3 1-20-11-8-5-4-3 2-6z" fill="#F9F8F8"/>
<path transform="translate(720,81)" d="m0 0 6 1 3 4-11 23-6 10-2 1-5-3-1-4 15-31z" fill="#F9F8F8"/>
<path transform="translate(662,57)" d="m0 0 7 1 3 2-1 5-9 26-3 5-7-1-1-3 8-26z" fill="#F9F8F8"/>
<path transform="translate(545,949)" d="m0 0h7l2 7 2 23v8l-7 2-3-1-1-5-1-16v-17z" fill="#F9F8F8"/>
<path transform="translate(458,948)" d="m0 0 9 1v11l-3 26-1 1h-8l-2-2 3-26 1-9z" fill="#F9F8F8"/>
<path transform="translate(374,930)" d="m0 0 7 1 2 1-1 6-8 27-3 5-7-3-1-3 10-33z" fill="#F9F8F8"/>
<path transform="translate(132,739)" d="m0 0 4 1 2 4v3l-21 13-10 7-3-1-3-5 1-5 18-10 10-6z" fill="#F9F8F8"/>
<path transform="translate(959,352)" d="m0 0 5 1 1 8-10 4-21 7h-6l-2-4v-4l15-6z" fill="#F9F8F8"/>
<path transform="translate(823,149)" d="m0 0 5 2 3 3-2 5-8 8-7 8-8 9-5-2-2-5 9-11 13-14z" fill="#F9F8F8"/>
<path transform="translate(633,48)" d="m0 0 9 2 1 2-9 32-3 4-5-1-2-2 1-8 6-24z" fill="#F9F8F8"/>
<path transform="translate(395,45)" d="m0 0 5 1 4 14 4 17v6l-5 2-4-1-7-26-2-10z" fill="#F9F8F8"/>
<path transform="translate(737,887)" d="m0 0 4 1 7 10 12 20-2 4-4 2-4-1-6-11-11-19 1-4z" fill="#F9F8F8"/>
<path transform="translate(204,828)" d="m0 0 5 2 2 2-1 4-5 4-7 8-12 13-5-1-3-4 1-4 6-5 7-8 10-10z" fill="#F9F8F8"/>
<path transform="translate(183,808)" d="m0 0 5 1 3 5-17 16-10 10-4-1-4-5 2-4 11-10 8-7z" fill="#F9F8F8"/>
<path transform="translate(93,662)" d="m0 0h5l2 7-4 3-28 11-4 1-3-5-1-4 5-3 26-9z" fill="#F9F8F8"/>
<path transform="translate(76,607)" d="m0 0h5l2 3v5l-8 3-25 6h-5l-2-9 5-2z" fill="#F9F8F8"/>
<path transform="translate(45,400)" d="m0 0 8 1 28 7 2 3-2 6-11-1-27-6-1-3z" fill="#F9F8F8"/>
<path transform="translate(886,217)" d="m0 0 5 1 2 3-1 5-16 12-10 8-4 1-4-5 1-4 15-12z" fill="#F9F8F8"/>
<path transform="translate(205,141)" d="m0 0h3l7 9 14 17 2 5-5 4-4-1-13-15-9-11 1-4z" fill="#F9F8F8"/>
<path transform="translate(255,105)" d="m0 0 4 1 13 22 5 8v3l-7 4-7-10-14-22 1-3z" fill="#F9F8F8"/>
<path transform="translate(367,53)" d="m0 0 4 1 6 21 3 10v6l-7 2-3-5-10-31z" fill="#F9F8F8"/>
<path transform="translate(454,35)" d="m0 0h6l2 2 2 20 1 15-2 3-7-1-3-16-1-10v-12z" fill="#F9F8F8"/>
<path transform="translate(761,872)" d="m0 0 5 1 8 11 12 17-2 4-5 3-5-5-15-22-2-3 1-4z" fill="#F9F8F8"/>
<path transform="translate(827,816)" d="m0 0 5 1 4 5 8 7 12 12-1 4-3 3-5-1-24-24 1-4z" fill="#F9F8F8"/>
<path transform="translate(949,323)" d="m0 0 4 2 2 6-5 3-29 12h-3l-2-4v-5l9-4 21-9z" fill="#F9F8F8"/>
<path transform="translate(936,295)" d="m0 0 4 2 2 3v4l-33 16-4-2-1-7 25-13z" fill="#F9F8F8"/>
<path transform="translate(845,171)" d="m0 0 5 1 3 4-2 4-24 24-4-2-3-3 1-4z" fill="#F9F8F8"/>
<path transform="translate(428,39)" d="m0 0 3 1 5 28v10l-1 1h-6l-3-6-5-25v-7z" fill="#F9F8F8"/>
<path transform="translate(660,924)" d="m0 0 4 1 4 9 8 22v5l-4 2-5-1-4-10-7-20v-5z" fill="#F9F8F8"/>
<path transform="translate(105,688)" d="m0 0 4 1 2 3-1 5-23 11-8 4-4-1-3-5 1-4 21-9z" fill="#F9F8F8"/>
<path transform="translate(904,242)" d="m0 0h4l3 4v5l-15 9-16 11-4-4-1-5 14-10 14-9z" fill="#F9F8F8"/>
<path transform="translate(799,130)" d="m0 0 4 1 4 3-1 4-12 15-8 11-5 1-4-4 2-5 10-14z" fill="#F9F8F8"/>
<path transform="translate(336,64)" d="m0 0 5 1 2 2 7 20 4 10-1 4-4 2-4-1-13-31 1-5z" fill="#F9F8F8"/>
<path transform="translate(541,33)" d="m0 0h9l1 1v13l-3 25h-9v-12l1-19z" fill="#F9F8F8"/>
<path transform="translate(430,944)" d="m0 0 8 1 1 3-6 34-4 2-5-2-1-5 5-29z" fill="#F9F8F8"/>
<path transform="translate(224,848)" d="m0 0h5l3 3-1 4-10 12-11 14-4 1-5-5 2-5 10-11 7-9z" fill="#F9F8F8"/>
<path transform="translate(164,786)" d="m0 0 5 1 2 3-1 5-8 6-13 11-5 4-5-1-3-4 2-4 13-11 12-9z" fill="#F9F8F8"/>
<path transform="translate(632,933)" d="m0 0 5 1 3 8 7 24-1 5-8 1-3-8-7-25 1-5z" fill="#F9F8F8"/>
<path transform="translate(117,714)" d="m0 0 4 1 2 3-1 5-26 14-4 3-4-2-3-5 1-3 27-14z" fill="#F9F8F8"/>
<path transform="translate(84,635)" d="m0 0 5 1 2 6-5 3-19 6-9 3h-5l-2-5v-4l15-5z" fill="#F9F8F8"/>
<path transform="translate(38,430)" d="m0 0 9 1 24 4 6 2-1 8-15-1-18-3-6-2z" fill="#F9F8F8"/>
<path transform="translate(866,193)" d="m0 0 5 1 3 4-1 4-11 9-15 13-5-1-2-3 1-4 16-15z" fill="#F9F8F8"/>
<path transform="translate(282,89)" d="m0 0 3 1 10 18 6 12 1 4-4 3-5-1-14-24-3-6 1-4z" fill="#F9F8F8"/>
<path transform="translate(486,32)" d="m0 0 6 1 2 32v5l-3 2h-5l-2-2-2-25v-12z" fill="#F9F8F8"/>
<path transform="translate(73,578)" d="m0 0 3 1 1 8-6 2-28 5-5-1-1-8 12-3z" fill="#F9F8F8"/>
<path transform="translate(230,122)" d="m0 0 6 5 18 26v2l-8 4-8-11-14-19 2-4z" fill="#F9F8F8"/>
<path transform="translate(53,370)" d="m0 0 9 2 26 8 2 3-3 7-12-3-24-7-1-3z" fill="#F9F8F8"/>
<path transform="translate(921,268)" d="m0 0 4 2 3 4-1 3-27 15-6 3-4-6v-3l26-15z" fill="#F9F8F8"/>
<path transform="translate(308,76)" d="m0 0 5 1 15 32-5 5-4-1-9-17-6-13 1-5z" fill="#F9F8F8"/>
<path transform="translate(574,36)" d="m0 0 7 1 1 4-5 32-3 3-6-1v-11l3-24 1-3z" fill="#F9F8F8"/>
<path transform="translate(148,763)" d="m0 0 4 2 2 3v3l-8 5-18 13-3 3-4-1-3-4 1-4 9-7 13-9z" fill="#F9F8F8"/>
<path transform="translate(712,901)" d="m0 0 4 1 5 8 12 23-2 4-3 2-4-1-10-19-6-12v-3z" fill="#F9F8F8"/>
<path transform="translate(516,951)" d="m0 0h7l1 1 1 12v26l-6 1-3-1-1-13v-25z" fill="#F9F8F8"/>
<path transform="translate(241,377)" d="m0 0h6l11 6 14 7 4 1 2-7 2 1v10l-4 4-9-3-16-7-5 1-2-2-2-6z" fill="#F9F8F8"/>
<path transform="translate(378,254)" d="m0 0h4l12 25 2 1v3l-7 3h-3l-5-13-5-10-2-2v-5z" fill="#F9F8F8"/>
<path transform="translate(322,335)" d="m0 0 4 2 1 6-4 9-5 5h-6l-1-3-3-1 1-4 8-9h2l2-4z" fill="#023426"/>
<path transform="translate(289,323)" d="m0 0h10l5 5 2 3-1 4-3 2-7-1-6-4-2-2v-5z" fill="#023426"/>
<path transform="translate(765,744)" d="m0 0h6l4 3v7l-5 5-5-1-5-6 1-4z" fill="#F9F8F8"/>
<path transform="translate(596,845)" d="m0 0h8l3 3v7l-5 4h-5l-5-6 1-5z" fill="#F9F8F8"/>
<path transform="translate(176,616)" d="m0 0 5 2 3 7-2 5-7 2-6-6v-5l4-4z" fill="#F9F8F8"/>
<path transform="translate(286,325)" d="m0 0 2 2 1 4 6 4 7 1 5-4-1 6-8 7-9-3-5-8 1-8z" fill="#F9F8F8"/>
<path transform="translate(313,796)" d="m0 0 6 2 4 4-1 5-4 4-3 1-5-3-2-3 1-7z" fill="#F9F8F8"/>
<path transform="translate(660,821)" d="m0 0 6 1 4 6-2 5-4 3h-5l-4-5 1-7z" fill="#F9F8F8"/>
<path transform="translate(847,601)" d="m0 0 6 1 3 5-1 6-4 3h-5l-5-6 1-5z" fill="#F9F8F8"/>
<path transform="translate(164,585)" d="m0 0h6l5 6-1 5-3 3-6 1-4-4-1-5 3-5z" fill="#F9F8F8"/>
<path transform="translate(433,848)" d="m0 0 7 1 3 2v8l-3 3-4 1-6-4-2-3 1-4z" fill="#F9F8F8"/>
<path transform="translate(860,503)" d="m0 0 7 1 3 4-1 7-5 3-5-1-3-3v-7z" fill="#F9F8F8"/>
<path transform="translate(629,172)" d="m0 0 6 1 4 4-1 7-4 3-6-1-4-5 1-5z" fill="#F9F8F8"/>
<path transform="translate(468,853)" d="m0 0 6 2 2 4v5l-3 3-5 1-5-3-2-3 1-5 3-3z" fill="#F9F8F8"/>
<path transform="translate(716,788)" d="m0 0h6l4 4-1 7-5 4-5-1-3-4v-7z" fill="#F9F8F8"/>
<path transform="translate(854,569)" d="m0 0 7 1 2 3v7l-4 4h-5l-5-5 1-6z" fill="#F9F8F8"/>
<path transform="translate(689,200)" d="m0 0 6 2 4 4-1 5-4 4h-6l-4-5v-5z" fill="#F9F8F8"/>
<path transform="translate(371,828)" d="m0 0 6 1 3 3v7l-4 4-6-1-4-4 1-7z" fill="#F9F8F8"/>
<path transform="translate(805,692)" d="m0 0h7l3 3v7l-5 5-5-1-4-5v-5z" fill="#F9F8F8"/>
<path transform="translate(846,405)" d="m0 0h6l3 3 1 7-4 4-5 1-6-7 1-4z" fill="#F9F8F8"/>
<path transform="translate(741,240)" d="m0 0h6l4 3 1 5-3 5-5 2-7-6-1-4z" fill="#F9F8F8"/>
<path transform="translate(468,153)" d="m0 0 5 1 3 5-1 6-5 3-6-2-3-4 1-5z" fill="#F9F8F8"/>
<path transform="translate(201,677)" d="m0 0 7 1 3 5-1 6-6 3-4-1-4-5 1-5z" fill="#F9F8F8"/>
<path transform="translate(823,663)" d="m0 0 6 1 3 4-1 6-5 4-4-1-5-5 1-5z" fill="#F9F8F8"/>
<path transform="translate(186,648)" d="m0 0 7 1 2 2 1 6-4 5-4 1-6-5-2-5z" fill="#F9F8F8"/>
<path transform="translate(532,152)" d="m0 0 7 1 3 3v6l-4 4h-7l-3-4v-7z" fill="#F9F8F8"/>
<path transform="translate(401,840)" d="m0 0h6l4 3 1 4-2 5-3 2h-5l-5-5-1-4z" fill="#F9F8F8"/>
<path transform="translate(286,777)" d="m0 0 5 1 4 4v6l-3 3-5 1-7-6 1-4z" fill="#F9F8F8"/>
<path transform="translate(218,705)" d="m0 0h6l3 3 1 8-6 4-5-2-4-5 2-5z" fill="#F9F8F8"/>
<path transform="translate(837,632)" d="m0 0 6 2 2 3v6l-3 4-5 1-5-4v-8z" fill="#F9F8F8"/>
<path transform="translate(160,552)" d="m0 0 6 2 2 6-1 5-3 2h-6l-4-5v-5z" fill="#F9F8F8"/>
<path transform="translate(858,537)" d="m0 0h7l3 5-1 7-3 2h-6l-5-6 2-5z" fill="#F9F8F8"/>
<path transform="translate(854,437)" d="m0 0h5l4 4v8l-5 3-5-1-4-5 1-5z" fill="#F9F8F8"/>
<path transform="translate(165,421)" d="m0 0 6 1 3 3 1 4-3 5-3 2-6-1-3-4 1-6z" fill="#F9F8F8"/>
<path transform="translate(787,288)" d="m0 0 6 1 3 3v7l-5 4-5-1-4-5v-5z" fill="#F9F8F8"/>
<path transform="translate(766,263)" d="m0 0 7 2 2 2v7l-6 4-5-2-4-5 1-4 3-3z" fill="#F9F8F8"/>
<path transform="translate(261,252)" d="m0 0h6l4 3v7l-6 5-4-2-4-4-1-4z" fill="#F9F8F8"/>
<path transform="translate(564,156)" d="m0 0h6l5 4-1 7-4 3-6-1-4-5 1-5z" fill="#F9F8F8"/>
<path transform="translate(564,852)" d="m0 0h7l4 4-1 7-3 2h-6l-5-5 1-6z" fill="#F9F8F8"/>
<path transform="translate(689,806)" d="m0 0h5l5 6-2 5-3 3h-7l-3-4 1-7z" fill="#F9F8F8"/>
<path transform="translate(174,390)" d="m0 0h6l3 4v7l-4 3-7-1-4-6 4-6z" fill="#F9F8F8"/>
<path transform="translate(822,344)" d="m0 0h6l3 3v8l-5 4-5-2-4-5 1-5z" fill="#F9F8F8"/>
<path transform="translate(628,835)" d="m0 0h7l4 4-1 7-3 2h-8l-3-4v-5z" fill="#F9F8F8"/>
<path transform="translate(260,756)" d="m0 0h7l4 4v6l-5 4-5-1-5-5 1-5z" fill="#F9F8F8"/>
<path transform="translate(315,209)" d="m0 0 6 3 2 3-1 5-5 4h-5l-4-5 1-6z" fill="#F9F8F8"/>
<path transform="translate(659,185)" d="m0 0 7 1 3 4-1 7-7 3-5-3-1-2v-6z" fill="#F9F8F8"/>
<path transform="translate(341,814)" d="m0 0h5l5 5-1 6-5 3-6-1-3-4 1-5z" fill="#F9F8F8"/>
<path transform="translate(740,768)" d="m0 0h8l3 2v8l-6 4-5-2-4-6 3-5z" fill="#F9F8F8"/>
<path transform="translate(858,470)" d="m0 0h7l2 2 1 8-4 4h-6l-4-5 1-6z" fill="#F9F8F8"/>
<path transform="translate(220,301)" d="m0 0 5 1 3 4-1 7-4 3-6-1-3-4 1-6z" fill="#F9F8F8"/>
<path transform="translate(287,229)" d="m0 0 5 1 3 3v7l-5 4-5-1-5-6 4-6z" fill="#F9F8F8"/>
<path transform="translate(237,732)" d="m0 0h8l3 4v6l-5 4-5-1-4-5-1-3 1-2h2z" fill="#F9F8F8"/>
<path transform="translate(804,316)" d="m0 0h8l3 3v7l-5 4-4-1-5-5-1-4z" fill="#F9F8F8"/>
<path transform="translate(341,193)" d="m0 0 7 1 3 4-1 5-4 4h-6l-4-5 1-6z" fill="#F9F8F8"/>
<path transform="translate(597,163)" d="m0 0 7 1 3 3v6l-3 3-4 1-5-2-3-4 1-4z" fill="#F9F8F8"/>
<path transform="translate(155,520)" d="m0 0h6l3 2 1 8-4 4-4 1-4-2-1-2v-8z" fill="#F9F8F8"/>
<path transform="translate(202,329)" d="m0 0 5 1 4 5-1 5-5 4-5-1-4-5 1-4z" fill="#F9F8F8"/>
<path transform="translate(401,168)" d="m0 0h7l3 3v7l-6 4-5-2-3-3-1-4z" fill="#F9F8F8"/>
<path transform="translate(159,454)" d="m0 0 7 1 2 5-1 6-3 2h-6l-4-5 1-5z" fill="#F9F8F8"/>
<path transform="translate(185,360)" d="m0 0h7l3 2 1 5-3 5-3 2-5-1-4-5 1-5z" fill="#F9F8F8"/>
<path transform="translate(371,179)" d="m0 0 7 1 2 2v7l-3 3-6 1-5-5-1-3 4-5z" fill="#F9F8F8"/>
<path transform="translate(500,856)" d="m0 0 6 1 3 5-2 6-2 2h-6l-4-4-1-5z" fill="#F9F8F8"/>
<path transform="translate(787,719)" d="m0 0 7 1 2 3v6l-4 4-7-1-3-4 1-5z" fill="#F9F8F8"/>
<path transform="translate(836,374)" d="m0 0h5l4 5v6l-4 3h-6l-3-3-1-5 3-5z" fill="#F9F8F8"/>
<path transform="translate(239,276)" d="m0 0 7 1 2 3-1 7-5 4-7-4-1-6z" fill="#F9F8F8"/>
<path transform="translate(155,487)" d="m0 0 7 1 3 5-1 5-3 3-4 1-5-4-1-6z" fill="#F9F8F8"/>
<path transform="translate(432,160)" d="m0 0h8l3 3v6l-3 3-6 1-5-5-1-4z" fill="#F9F8F8"/>
<path transform="translate(531,856)" d="m0 0h8l3 3v6l-5 4-7-1-2-3v-6z" fill="#F9F8F8"/>
<path transform="translate(715,220)" d="m0 0h7l4 4-1 6-5 4-5-2-3-3v-6z" fill="#F9F8F8"/>
<path transform="translate(498,152)" d="m0 0h7l3 2 1 4-2 5-2 2h-6l-4-4-1-4z" fill="#F9F8F8"/>
<path transform="translate(373,244)" d="m0 0 5 1 1 1v6l-7 1-3-2 1-5z" fill="#F9F8F8"/>
<path transform="translate(320,290)" d="m0 0h3l1 5-5 5h-7l2-4z" fill="#F9F8F8"/>
<path transform="translate(1019,568)" d="m0 0h1v13l-2 7h-1v-9z" fill="#F9F8F8"/>
</svg>
